<mxfile host="app.diagrams.net" modified="2020-11-23T07:53:02.023Z" agent="5.0 (Windows NT 6.1; Win64; x64) AppleWebKit/537.36 (KHTML, like Gecko) Chrome/86.0.4240.111 Safari/537.36" etag="oZIsfJ3K52qhYJ9_Se-q" version="13.10.0" type="github">
  <diagram name="Page-1" id="64c3da0e-402f-94eb-ee01-a36477274f13">
    <mxGraphModel dx="2370" dy="1175" grid="1" gridSize="10" guides="1" tooltips="1" connect="1" arrows="1" fold="1" page="1" pageScale="1" pageWidth="1169" pageHeight="826" background="#ffffff" math="0" shadow="0">
      <root>
        <mxCell id="0" />
        <mxCell id="1" parent="0" />
        <mxCell id="2" value="绥化学院学生实践能力质量跟踪反馈系统" style="whiteSpace=wrap;rounded=1;shadow=1;strokeColor=none;fontColor=#FFFFFF;fontStyle=1;fontSize=24;fillColor=#F2931E;" parent="1" vertex="1">
          <mxGeometry x="985" y="120" width="510" height="60" as="geometry" />
        </mxCell>
        <mxCell id="10" value="SUB-TASK 1" style="whiteSpace=wrap;rounded=1;fillColor=#12AAB5;strokeColor=none;shadow=1;fontColor=#FFFFFF;" parent="1" vertex="1">
          <mxGeometry x="440" y="260.0000000000001" width="120" height="60" as="geometry" />
        </mxCell>
        <mxCell id="12" value="SUB-TASK 2" style="whiteSpace=wrap;rounded=1;fillColor=#12AAB5;strokeColor=none;shadow=1;fontColor=#FFFFFF;" parent="1" vertex="1">
          <mxGeometry x="640" y="260.0000000000001" width="120" height="60" as="geometry" />
        </mxCell>
        <mxCell id="23" value="WORK&#xa;PACKAGE 1" style="whiteSpace=wrap;rounded=1;fillColor=#999999;strokeColor=none;shadow=1;fontColor=#FFFFFF;fontStyle=0" parent="1" vertex="1">
          <mxGeometry x="439.99999999999994" y="360.0000000000001" width="120" height="60" as="geometry" />
        </mxCell>
        <mxCell id="24" value="WORK&#xa;PACKAGE 2" style="whiteSpace=wrap;rounded=1;fillColor=#999999;strokeColor=none;shadow=1;fontColor=#FFFFFF;fontStyle=0" parent="1" vertex="1">
          <mxGeometry x="440.0000000000001" y="440.0000000000001" width="120" height="60" as="geometry" />
        </mxCell>
        <mxCell id="25" value="WORK&#xa;PACKAGE 3" style="whiteSpace=wrap;rounded=1;fillColor=#999999;strokeColor=none;shadow=1;fontColor=#FFFFFF;fontStyle=0" parent="1" vertex="1">
          <mxGeometry x="440.00000000000006" y="520.0000000000001" width="120" height="60" as="geometry" />
        </mxCell>
        <mxCell id="26" value="WORK&#xa;PACKAGE 4" style="whiteSpace=wrap;rounded=1;fillColor=#999999;strokeColor=none;shadow=1;fontColor=#FFFFFF;fontStyle=0" parent="1" vertex="1">
          <mxGeometry x="440.0000000000002" y="600.0000000000001" width="120" height="60" as="geometry" />
        </mxCell>
        <mxCell id="27" value="WORK&#xa;PACKAGE 5" style="whiteSpace=wrap;rounded=1;fillColor=#999999;strokeColor=none;shadow=1;fontColor=#FFFFFF;fontStyle=0" parent="1" vertex="1">
          <mxGeometry x="440.00000000000034" y="680.0000000000001" width="120" height="60" as="geometry" />
        </mxCell>
        <mxCell id="38" value="WORK&#xa;PACKAGE 1" style="whiteSpace=wrap;rounded=1;fillColor=#999999;strokeColor=none;shadow=1;fontColor=#FFFFFF;fontStyle=0" parent="1" vertex="1">
          <mxGeometry x="639.9999999999995" y="360.0000000000001" width="120" height="60" as="geometry" />
        </mxCell>
        <mxCell id="39" value="WORK&#xa;PACKAGE 2" style="whiteSpace=wrap;rounded=1;fillColor=#999999;strokeColor=none;shadow=1;fontColor=#FFFFFF;fontStyle=0" parent="1" vertex="1">
          <mxGeometry x="639.9999999999998" y="440.0000000000001" width="120" height="60" as="geometry" />
        </mxCell>
        <mxCell id="40" value="WORK&#xa;PACKAGE 3" style="whiteSpace=wrap;rounded=1;fillColor=#999999;strokeColor=none;shadow=1;fontColor=#FFFFFF;fontStyle=0" parent="1" vertex="1">
          <mxGeometry x="639.9999999999998" y="520.0000000000001" width="120" height="60" as="geometry" />
        </mxCell>
        <mxCell id="41" value="WORK&#xa;PACKAGE 4" style="whiteSpace=wrap;rounded=1;fillColor=#999999;strokeColor=none;shadow=1;fontColor=#FFFFFF;fontStyle=0" parent="1" vertex="1">
          <mxGeometry x="639.9999999999999" y="600.0000000000001" width="120" height="60" as="geometry" />
        </mxCell>
        <mxCell id="42" value="WORK&#xa;PACKAGE 5" style="whiteSpace=wrap;rounded=1;fillColor=#999999;strokeColor=none;shadow=1;fontColor=#FFFFFF;fontStyle=0" parent="1" vertex="1">
          <mxGeometry x="640" y="680.0000000000001" width="120" height="60" as="geometry" />
        </mxCell>
        <mxCell id="43" value="SUB-TASK 1" style="whiteSpace=wrap;rounded=1;fillColor=#12AAB5;strokeColor=none;shadow=1;fontColor=#FFFFFF;" parent="1" vertex="1">
          <mxGeometry x="809.9999999999998" y="260.0000000000001" width="120" height="60" as="geometry" />
        </mxCell>
        <mxCell id="44" value="SUB-TASK 2" style="whiteSpace=wrap;rounded=1;fillColor=#12AAB5;strokeColor=none;shadow=1;fontColor=#FFFFFF;" parent="1" vertex="1">
          <mxGeometry x="1009.9999999999998" y="260.0000000000001" width="120" height="60" as="geometry" />
        </mxCell>
        <mxCell id="45" value="WORK&#xa;PACKAGE 1" style="whiteSpace=wrap;rounded=1;fillColor=#999999;strokeColor=none;shadow=1;fontColor=#FFFFFF;fontStyle=0" parent="1" vertex="1">
          <mxGeometry x="809.9999999999998" y="360.0000000000001" width="120" height="60" as="geometry" />
        </mxCell>
        <mxCell id="46" value="WORK&#xa;PACKAGE 2" style="whiteSpace=wrap;rounded=1;fillColor=#999999;strokeColor=none;shadow=1;fontColor=#FFFFFF;fontStyle=0" parent="1" vertex="1">
          <mxGeometry x="809.9999999999999" y="440.0000000000001" width="120" height="60" as="geometry" />
        </mxCell>
        <mxCell id="47" value="WORK&#xa;PACKAGE 3" style="whiteSpace=wrap;rounded=1;fillColor=#999999;strokeColor=none;shadow=1;fontColor=#FFFFFF;fontStyle=0" parent="1" vertex="1">
          <mxGeometry x="809.9999999999998" y="520.0000000000001" width="120" height="60" as="geometry" />
        </mxCell>
        <mxCell id="48" value="WORK&#xa;PACKAGE 4" style="whiteSpace=wrap;rounded=1;fillColor=#999999;strokeColor=none;shadow=1;fontColor=#FFFFFF;fontStyle=0" parent="1" vertex="1">
          <mxGeometry x="810" y="600.0000000000001" width="120" height="60" as="geometry" />
        </mxCell>
        <mxCell id="49" value="WORK&#xa;PACKAGE 5" style="whiteSpace=wrap;rounded=1;fillColor=#999999;strokeColor=none;shadow=1;fontColor=#FFFFFF;fontStyle=0" parent="1" vertex="1">
          <mxGeometry x="810.0000000000001" y="680.0000000000001" width="120" height="60" as="geometry" />
        </mxCell>
        <mxCell id="50" value="WORK&#xa;PACKAGE 1" style="whiteSpace=wrap;rounded=1;fillColor=#999999;strokeColor=none;shadow=1;fontColor=#FFFFFF;fontStyle=0" parent="1" vertex="1">
          <mxGeometry x="1009.9999999999993" y="360.0000000000001" width="120" height="60" as="geometry" />
        </mxCell>
        <mxCell id="51" value="WORK&#xa;PACKAGE 2" style="whiteSpace=wrap;rounded=1;fillColor=#999999;strokeColor=none;shadow=1;fontColor=#FFFFFF;fontStyle=0" parent="1" vertex="1">
          <mxGeometry x="1009.9999999999995" y="440.0000000000001" width="120" height="60" as="geometry" />
        </mxCell>
        <mxCell id="52" value="WORK&#xa;PACKAGE 3" style="whiteSpace=wrap;rounded=1;fillColor=#999999;strokeColor=none;shadow=1;fontColor=#FFFFFF;fontStyle=0" parent="1" vertex="1">
          <mxGeometry x="1009.9999999999995" y="520.0000000000001" width="120" height="60" as="geometry" />
        </mxCell>
        <mxCell id="53" value="WORK&#xa;PACKAGE 4" style="whiteSpace=wrap;rounded=1;fillColor=#999999;strokeColor=none;shadow=1;fontColor=#FFFFFF;fontStyle=0" parent="1" vertex="1">
          <mxGeometry x="1009.9999999999997" y="600.0000000000001" width="120" height="60" as="geometry" />
        </mxCell>
        <mxCell id="54" value="WORK&#xa;PACKAGE 5" style="whiteSpace=wrap;rounded=1;fillColor=#999999;strokeColor=none;shadow=1;fontColor=#FFFFFF;fontStyle=0" parent="1" vertex="1">
          <mxGeometry x="1009.9999999999998" y="680.0000000000001" width="120" height="60" as="geometry" />
        </mxCell>
        <mxCell id="105" value="" style="edgeStyle=elbowEdgeStyle;elbow=horizontal;rounded=0;fontColor=#000000;endArrow=none;endFill=0;strokeWidth=8;strokeColor=#23445D;" parent="1" source="10" target="23" edge="1">
          <mxGeometry width="100" height="100" relative="1" as="geometry">
            <mxPoint x="380" y="440" as="sourcePoint" />
            <mxPoint x="480" y="340" as="targetPoint" />
            <Array as="points">
              <mxPoint x="420" y="340" />
            </Array>
          </mxGeometry>
        </mxCell>
        <mxCell id="106" value="" style="edgeStyle=elbowEdgeStyle;elbow=horizontal;rounded=0;fontColor=#000000;endArrow=none;endFill=0;strokeWidth=8;strokeColor=#23445D;" parent="1" source="10" target="24" edge="1">
          <mxGeometry width="100" height="100" relative="1" as="geometry">
            <mxPoint x="450" y="300" as="sourcePoint" />
            <mxPoint x="450" y="400" as="targetPoint" />
            <Array as="points">
              <mxPoint x="420" y="360" />
            </Array>
          </mxGeometry>
        </mxCell>
        <mxCell id="107" value="" style="edgeStyle=elbowEdgeStyle;elbow=horizontal;rounded=0;fontColor=#000000;endArrow=none;endFill=0;strokeWidth=8;strokeColor=#23445D;" parent="1" source="10" target="27" edge="1">
          <mxGeometry width="100" height="100" relative="1" as="geometry">
            <mxPoint x="450" y="300" as="sourcePoint" />
            <mxPoint x="450" y="400" as="targetPoint" />
            <Array as="points">
              <mxPoint x="420" y="500" />
            </Array>
          </mxGeometry>
        </mxCell>
        <mxCell id="109" value="" style="edgeStyle=elbowEdgeStyle;elbow=horizontal;rounded=0;fontColor=#000000;endArrow=none;endFill=0;strokeWidth=8;strokeColor=#23445D;" parent="1" source="10" target="26" edge="1">
          <mxGeometry width="100" height="100" relative="1" as="geometry">
            <mxPoint x="470" y="320" as="sourcePoint" />
            <mxPoint x="470" y="420" as="targetPoint" />
            <Array as="points">
              <mxPoint x="420" y="370" />
            </Array>
          </mxGeometry>
        </mxCell>
        <mxCell id="110" value="" style="edgeStyle=elbowEdgeStyle;elbow=horizontal;rounded=0;fontColor=#000000;endArrow=none;endFill=0;strokeWidth=8;strokeColor=#23445D;" parent="1" source="10" target="25" edge="1">
          <mxGeometry width="100" height="100" relative="1" as="geometry">
            <mxPoint x="480" y="330" as="sourcePoint" />
            <mxPoint x="480" y="430" as="targetPoint" />
            <Array as="points">
              <mxPoint x="420" y="390" />
            </Array>
          </mxGeometry>
        </mxCell>
        <mxCell id="111" value="" style="edgeStyle=elbowEdgeStyle;elbow=horizontal;rounded=0;fontColor=#000000;endArrow=none;endFill=0;strokeWidth=8;strokeColor=#23445D;" parent="1" target="38" edge="1">
          <mxGeometry width="100" height="100" relative="1" as="geometry">
            <mxPoint x="630" y="290.0000000000004" as="sourcePoint" />
            <mxPoint x="630" y="390.0000000000004" as="targetPoint" />
            <Array as="points">
              <mxPoint x="620" y="340" />
            </Array>
          </mxGeometry>
        </mxCell>
        <mxCell id="112" value="" style="edgeStyle=elbowEdgeStyle;elbow=horizontal;rounded=0;fontColor=#000000;endArrow=none;endFill=0;strokeWidth=8;strokeColor=#23445D;" parent="1" source="12" target="39" edge="1">
          <mxGeometry width="100" height="100" relative="1" as="geometry">
            <mxPoint x="630" y="290.0000000000004" as="sourcePoint" />
            <mxPoint x="630" y="470.0000000000004" as="targetPoint" />
            <Array as="points">
              <mxPoint x="620" y="380" />
            </Array>
          </mxGeometry>
        </mxCell>
        <mxCell id="113" value="" style="edgeStyle=elbowEdgeStyle;elbow=horizontal;rounded=0;fontColor=#000000;endArrow=none;endFill=0;strokeWidth=8;strokeColor=#23445D;" parent="1" source="12" target="42" edge="1">
          <mxGeometry width="100" height="100" relative="1" as="geometry">
            <mxPoint x="630" y="290.0000000000004" as="sourcePoint" />
            <mxPoint x="630.0000000000005" y="710.0000000000003" as="targetPoint" />
            <Array as="points">
              <mxPoint x="620" y="500" />
            </Array>
          </mxGeometry>
        </mxCell>
        <mxCell id="114" value="" style="edgeStyle=elbowEdgeStyle;elbow=horizontal;rounded=0;fontColor=#000000;endArrow=none;endFill=0;strokeWidth=8;strokeColor=#23445D;" parent="1" source="12" target="41" edge="1">
          <mxGeometry width="100" height="100" relative="1" as="geometry">
            <mxPoint x="630" y="290.0000000000004" as="sourcePoint" />
            <mxPoint x="630.0000000000002" y="630.0000000000003" as="targetPoint" />
            <Array as="points">
              <mxPoint x="620" y="460" />
            </Array>
          </mxGeometry>
        </mxCell>
        <mxCell id="115" value="" style="edgeStyle=elbowEdgeStyle;elbow=horizontal;rounded=0;fontColor=#000000;endArrow=none;endFill=0;strokeWidth=8;strokeColor=#23445D;" parent="1" source="12" target="40" edge="1">
          <mxGeometry width="100" height="100" relative="1" as="geometry">
            <mxPoint x="630" y="290.0000000000004" as="sourcePoint" />
            <mxPoint x="630" y="550.0000000000003" as="targetPoint" />
            <Array as="points">
              <mxPoint x="620" y="420" />
            </Array>
          </mxGeometry>
        </mxCell>
        <mxCell id="118" value="" style="edgeStyle=elbowEdgeStyle;elbow=horizontal;rounded=0;fontColor=#000000;endArrow=none;endFill=0;strokeWidth=8;strokeColor=#23445D;" parent="1" source="43" target="45" edge="1">
          <mxGeometry width="100" height="100" relative="1" as="geometry">
            <mxPoint x="790" y="290.00000000000045" as="sourcePoint" />
            <mxPoint x="799.9999999999995" y="390" as="targetPoint" />
            <Array as="points">
              <mxPoint x="790" y="340" />
            </Array>
          </mxGeometry>
        </mxCell>
        <mxCell id="119" value="" style="edgeStyle=elbowEdgeStyle;elbow=horizontal;rounded=0;fontColor=#000000;endArrow=none;endFill=0;strokeWidth=8;strokeColor=#23445D;" parent="1" source="43" target="46" edge="1">
          <mxGeometry width="100" height="100" relative="1" as="geometry">
            <mxPoint x="800" y="290" as="sourcePoint" />
            <mxPoint x="799.9999999999998" y="470" as="targetPoint" />
            <Array as="points">
              <mxPoint x="790" y="380" />
            </Array>
          </mxGeometry>
        </mxCell>
        <mxCell id="120" value="" style="edgeStyle=elbowEdgeStyle;elbow=horizontal;rounded=0;fontColor=#000000;endArrow=none;endFill=0;strokeWidth=8;strokeColor=#23445D;" parent="1" source="43" target="49" edge="1">
          <mxGeometry width="100" height="100" relative="1" as="geometry">
            <mxPoint x="800" y="290" as="sourcePoint" />
            <mxPoint x="800" y="710" as="targetPoint" />
            <Array as="points">
              <mxPoint x="790" y="510" />
            </Array>
          </mxGeometry>
        </mxCell>
        <mxCell id="121" value="" style="edgeStyle=elbowEdgeStyle;elbow=horizontal;rounded=0;fontColor=#000000;endArrow=none;endFill=0;strokeWidth=8;strokeColor=#23445D;" parent="1" source="43" target="48" edge="1">
          <mxGeometry width="100" height="100" relative="1" as="geometry">
            <mxPoint x="800" y="290" as="sourcePoint" />
            <mxPoint x="800" y="630" as="targetPoint" />
            <Array as="points">
              <mxPoint x="790" y="460" />
            </Array>
          </mxGeometry>
        </mxCell>
        <mxCell id="122" value="" style="edgeStyle=elbowEdgeStyle;elbow=horizontal;rounded=0;fontColor=#000000;endArrow=none;endFill=0;strokeWidth=8;strokeColor=#23445D;" parent="1" source="43" target="47" edge="1">
          <mxGeometry width="100" height="100" relative="1" as="geometry">
            <mxPoint x="800" y="290" as="sourcePoint" />
            <mxPoint x="799.9999999999998" y="550" as="targetPoint" />
            <Array as="points">
              <mxPoint x="790" y="430" />
            </Array>
          </mxGeometry>
        </mxCell>
        <mxCell id="123" value="" style="edgeStyle=elbowEdgeStyle;elbow=horizontal;rounded=0;fontColor=#000000;endArrow=none;endFill=0;strokeWidth=8;strokeColor=#23445D;" parent="1" source="44" target="50" edge="1">
          <mxGeometry width="100" height="100" relative="1" as="geometry">
            <mxPoint x="980" y="290.00000000000045" as="sourcePoint" />
            <mxPoint x="989.9999999999995" y="390" as="targetPoint" />
            <Array as="points">
              <mxPoint x="990" y="340" />
            </Array>
          </mxGeometry>
        </mxCell>
        <mxCell id="124" value="" style="edgeStyle=elbowEdgeStyle;elbow=horizontal;rounded=0;fontColor=#000000;endArrow=none;endFill=0;strokeWidth=8;strokeColor=#23445D;" parent="1" source="44" target="51" edge="1">
          <mxGeometry width="100" height="100" relative="1" as="geometry">
            <mxPoint x="990" y="290" as="sourcePoint" />
            <mxPoint x="989.9999999999998" y="470" as="targetPoint" />
            <Array as="points">
              <mxPoint x="990" y="380" />
            </Array>
          </mxGeometry>
        </mxCell>
        <mxCell id="125" value="" style="edgeStyle=elbowEdgeStyle;elbow=horizontal;rounded=0;fontColor=#000000;endArrow=none;endFill=0;strokeWidth=8;strokeColor=#23445D;" parent="1" source="44" target="54" edge="1">
          <mxGeometry width="100" height="100" relative="1" as="geometry">
            <mxPoint x="990" y="290" as="sourcePoint" />
            <mxPoint x="990" y="710" as="targetPoint" />
            <Array as="points">
              <mxPoint x="990" y="500" />
            </Array>
          </mxGeometry>
        </mxCell>
        <mxCell id="126" value="" style="edgeStyle=elbowEdgeStyle;elbow=horizontal;rounded=0;fontColor=#000000;endArrow=none;endFill=0;strokeWidth=8;strokeColor=#23445D;" parent="1" source="44" target="53" edge="1">
          <mxGeometry width="100" height="100" relative="1" as="geometry">
            <mxPoint x="990" y="290" as="sourcePoint" />
            <mxPoint x="990" y="630" as="targetPoint" />
            <Array as="points">
              <mxPoint x="990" y="460" />
            </Array>
          </mxGeometry>
        </mxCell>
        <mxCell id="127" value="" style="edgeStyle=elbowEdgeStyle;elbow=horizontal;rounded=0;fontColor=#000000;endArrow=none;endFill=0;strokeWidth=8;strokeColor=#23445D;" parent="1" source="44" target="52" edge="1">
          <mxGeometry width="100" height="100" relative="1" as="geometry">
            <mxPoint x="990" y="290" as="sourcePoint" />
            <mxPoint x="989.9999999999998" y="550" as="targetPoint" />
            <Array as="points">
              <mxPoint x="990" y="430" />
            </Array>
          </mxGeometry>
        </mxCell>
        <mxCell id="133" value="SUB-TASK 1" style="whiteSpace=wrap;rounded=1;fillColor=#12AAB5;strokeColor=none;shadow=1;fontColor=#FFFFFF;" parent="1" vertex="1">
          <mxGeometry x="1179.9999999999998" y="260.0000000000001" width="120" height="60" as="geometry" />
        </mxCell>
        <mxCell id="134" value="SUB-TASK 2" style="whiteSpace=wrap;rounded=1;fillColor=#12AAB5;strokeColor=none;shadow=1;fontColor=#FFFFFF;" parent="1" vertex="1">
          <mxGeometry x="1379.9999999999998" y="260.0000000000001" width="120" height="60" as="geometry" />
        </mxCell>
        <mxCell id="135" value="WORK&#xa;PACKAGE 1" style="whiteSpace=wrap;rounded=1;fillColor=#999999;strokeColor=none;shadow=1;fontColor=#FFFFFF;fontStyle=0" parent="1" vertex="1">
          <mxGeometry x="1179.9999999999998" y="360.0000000000001" width="120" height="60" as="geometry" />
        </mxCell>
        <mxCell id="136" value="WORK&#xa;PACKAGE 2" style="whiteSpace=wrap;rounded=1;fillColor=#999999;strokeColor=none;shadow=1;fontColor=#FFFFFF;fontStyle=0" parent="1" vertex="1">
          <mxGeometry x="1180" y="440.0000000000001" width="120" height="60" as="geometry" />
        </mxCell>
        <mxCell id="137" value="WORK&#xa;PACKAGE 3" style="whiteSpace=wrap;rounded=1;fillColor=#999999;strokeColor=none;shadow=1;fontColor=#FFFFFF;fontStyle=0" parent="1" vertex="1">
          <mxGeometry x="1179.9999999999998" y="520.0000000000001" width="120" height="60" as="geometry" />
        </mxCell>
        <mxCell id="138" value="WORK&#xa;PACKAGE 4" style="whiteSpace=wrap;rounded=1;fillColor=#999999;strokeColor=none;shadow=1;fontColor=#FFFFFF;fontStyle=0" parent="1" vertex="1">
          <mxGeometry x="1180" y="600.0000000000001" width="120" height="60" as="geometry" />
        </mxCell>
        <mxCell id="139" value="WORK&#xa;PACKAGE 5" style="whiteSpace=wrap;rounded=1;fillColor=#999999;strokeColor=none;shadow=1;fontColor=#FFFFFF;fontStyle=0" parent="1" vertex="1">
          <mxGeometry x="1180" y="680.0000000000001" width="120" height="60" as="geometry" />
        </mxCell>
        <mxCell id="140" value="WORK&#xa;PACKAGE 1" style="whiteSpace=wrap;rounded=1;fillColor=#999999;strokeColor=none;shadow=1;fontColor=#FFFFFF;fontStyle=0" parent="1" vertex="1">
          <mxGeometry x="1379.9999999999993" y="360.0000000000001" width="120" height="60" as="geometry" />
        </mxCell>
        <mxCell id="141" value="WORK&#xa;PACKAGE 2" style="whiteSpace=wrap;rounded=1;fillColor=#999999;strokeColor=none;shadow=1;fontColor=#FFFFFF;fontStyle=0" parent="1" vertex="1">
          <mxGeometry x="1379.9999999999995" y="440.0000000000001" width="120" height="60" as="geometry" />
        </mxCell>
        <mxCell id="142" value="WORK&#xa;PACKAGE 3" style="whiteSpace=wrap;rounded=1;fillColor=#999999;strokeColor=none;shadow=1;fontColor=#FFFFFF;fontStyle=0" parent="1" vertex="1">
          <mxGeometry x="1379.9999999999995" y="520.0000000000001" width="120" height="60" as="geometry" />
        </mxCell>
        <mxCell id="143" value="WORK&#xa;PACKAGE 4" style="whiteSpace=wrap;rounded=1;fillColor=#999999;strokeColor=none;shadow=1;fontColor=#FFFFFF;fontStyle=0" parent="1" vertex="1">
          <mxGeometry x="1379.9999999999995" y="600.0000000000001" width="120" height="60" as="geometry" />
        </mxCell>
        <mxCell id="144" value="WORK&#xa;PACKAGE 5" style="whiteSpace=wrap;rounded=1;fillColor=#999999;strokeColor=none;shadow=1;fontColor=#FFFFFF;fontStyle=0" parent="1" vertex="1">
          <mxGeometry x="1379.9999999999998" y="680.0000000000001" width="120" height="60" as="geometry" />
        </mxCell>
        <mxCell id="145" value="" style="edgeStyle=elbowEdgeStyle;elbow=horizontal;rounded=0;fontColor=#000000;endArrow=none;endFill=0;strokeWidth=8;strokeColor=#23445D;" parent="1" source="133" target="135" edge="1">
          <mxGeometry width="100" height="100" relative="1" as="geometry">
            <mxPoint x="1160" y="290.00000000000045" as="sourcePoint" />
            <mxPoint x="1169.9999999999995" y="390" as="targetPoint" />
            <Array as="points">
              <mxPoint x="1160" y="340" />
            </Array>
          </mxGeometry>
        </mxCell>
        <mxCell id="146" value="" style="edgeStyle=elbowEdgeStyle;elbow=horizontal;rounded=0;fontColor=#000000;endArrow=none;endFill=0;strokeWidth=8;strokeColor=#23445D;" parent="1" source="133" target="136" edge="1">
          <mxGeometry width="100" height="100" relative="1" as="geometry">
            <mxPoint x="1170" y="290" as="sourcePoint" />
            <mxPoint x="1169.9999999999998" y="470" as="targetPoint" />
            <Array as="points">
              <mxPoint x="1160" y="380" />
            </Array>
          </mxGeometry>
        </mxCell>
        <mxCell id="147" value="" style="edgeStyle=elbowEdgeStyle;elbow=horizontal;rounded=0;fontColor=#000000;endArrow=none;endFill=0;strokeWidth=8;strokeColor=#23445D;" parent="1" source="133" target="139" edge="1">
          <mxGeometry width="100" height="100" relative="1" as="geometry">
            <mxPoint x="1170" y="290" as="sourcePoint" />
            <mxPoint x="1170" y="710" as="targetPoint" />
            <Array as="points">
              <mxPoint x="1160" y="510" />
            </Array>
          </mxGeometry>
        </mxCell>
        <mxCell id="148" value="" style="edgeStyle=elbowEdgeStyle;elbow=horizontal;rounded=0;fontColor=#000000;endArrow=none;endFill=0;strokeWidth=8;strokeColor=#23445D;" parent="1" source="133" target="138" edge="1">
          <mxGeometry width="100" height="100" relative="1" as="geometry">
            <mxPoint x="1170" y="290" as="sourcePoint" />
            <mxPoint x="1170" y="630" as="targetPoint" />
            <Array as="points">
              <mxPoint x="1160" y="460" />
            </Array>
          </mxGeometry>
        </mxCell>
        <mxCell id="149" value="" style="edgeStyle=elbowEdgeStyle;elbow=horizontal;rounded=0;fontColor=#000000;endArrow=none;endFill=0;strokeWidth=8;strokeColor=#23445D;" parent="1" source="133" target="137" edge="1">
          <mxGeometry width="100" height="100" relative="1" as="geometry">
            <mxPoint x="1170" y="290" as="sourcePoint" />
            <mxPoint x="1169.9999999999998" y="550" as="targetPoint" />
            <Array as="points">
              <mxPoint x="1160" y="430" />
            </Array>
          </mxGeometry>
        </mxCell>
        <mxCell id="150" value="" style="edgeStyle=elbowEdgeStyle;elbow=horizontal;rounded=0;fontColor=#000000;endArrow=none;endFill=0;strokeWidth=8;strokeColor=#23445D;" parent="1" source="134" target="140" edge="1">
          <mxGeometry width="100" height="100" relative="1" as="geometry">
            <mxPoint x="1350" y="290.00000000000045" as="sourcePoint" />
            <mxPoint x="1359.9999999999995" y="390" as="targetPoint" />
            <Array as="points">
              <mxPoint x="1360" y="340" />
            </Array>
          </mxGeometry>
        </mxCell>
        <mxCell id="151" value="" style="edgeStyle=elbowEdgeStyle;elbow=horizontal;rounded=0;fontColor=#000000;endArrow=none;endFill=0;strokeWidth=8;strokeColor=#23445D;" parent="1" source="134" target="141" edge="1">
          <mxGeometry width="100" height="100" relative="1" as="geometry">
            <mxPoint x="1360" y="290" as="sourcePoint" />
            <mxPoint x="1359.9999999999998" y="470" as="targetPoint" />
            <Array as="points">
              <mxPoint x="1360" y="380" />
            </Array>
          </mxGeometry>
        </mxCell>
        <mxCell id="152" value="" style="edgeStyle=elbowEdgeStyle;elbow=horizontal;rounded=0;fontColor=#000000;endArrow=none;endFill=0;strokeWidth=8;strokeColor=#23445D;" parent="1" source="134" target="144" edge="1">
          <mxGeometry width="100" height="100" relative="1" as="geometry">
            <mxPoint x="1360" y="290" as="sourcePoint" />
            <mxPoint x="1360" y="710" as="targetPoint" />
            <Array as="points">
              <mxPoint x="1360" y="500" />
            </Array>
          </mxGeometry>
        </mxCell>
        <mxCell id="153" value="" style="edgeStyle=elbowEdgeStyle;elbow=horizontal;rounded=0;fontColor=#000000;endArrow=none;endFill=0;strokeWidth=8;strokeColor=#23445D;" parent="1" source="134" target="143" edge="1">
          <mxGeometry width="100" height="100" relative="1" as="geometry">
            <mxPoint x="1360" y="290" as="sourcePoint" />
            <mxPoint x="1360" y="630" as="targetPoint" />
            <Array as="points">
              <mxPoint x="1360" y="460" />
            </Array>
          </mxGeometry>
        </mxCell>
        <mxCell id="154" value="" style="edgeStyle=elbowEdgeStyle;elbow=horizontal;rounded=0;fontColor=#000000;endArrow=none;endFill=0;strokeWidth=8;strokeColor=#23445D;" parent="1" source="134" target="142" edge="1">
          <mxGeometry width="100" height="100" relative="1" as="geometry">
            <mxPoint x="1360" y="290" as="sourcePoint" />
            <mxPoint x="1359.9999999999998" y="550" as="targetPoint" />
            <Array as="points">
              <mxPoint x="1360" y="430" />
            </Array>
          </mxGeometry>
        </mxCell>
        <mxCell id="7uPClmpA7277DwavXmE7-244" style="edgeStyle=orthogonalEdgeStyle;rounded=0;orthogonalLoop=1;jettySize=auto;html=1;" edge="1" parent="1" source="155">
          <mxGeometry relative="1" as="geometry">
            <mxPoint x="1610" y="260" as="targetPoint" />
          </mxGeometry>
        </mxCell>
        <mxCell id="155" value="SUB-TASK 1" style="whiteSpace=wrap;rounded=1;fillColor=#12AAB5;strokeColor=none;shadow=1;fontColor=#FFFFFF;" parent="1" vertex="1">
          <mxGeometry x="1549.9999999999998" y="260.0000000000002" width="120" height="60" as="geometry" />
        </mxCell>
        <mxCell id="156" value="SUB-TASK 2" style="whiteSpace=wrap;rounded=1;fillColor=#12AAB5;strokeColor=none;shadow=1;fontColor=#FFFFFF;" parent="1" vertex="1">
          <mxGeometry x="1749.9999999999998" y="260.0000000000002" width="120" height="60" as="geometry" />
        </mxCell>
        <mxCell id="157" value="WORK&#xa;PACKAGE 1" style="whiteSpace=wrap;rounded=1;fillColor=#999999;strokeColor=none;shadow=1;fontColor=#FFFFFF;fontStyle=0" parent="1" vertex="1">
          <mxGeometry x="1549.9999999999998" y="360.0000000000002" width="120" height="60" as="geometry" />
        </mxCell>
        <mxCell id="158" value="WORK&#xa;PACKAGE 2" style="whiteSpace=wrap;rounded=1;fillColor=#999999;strokeColor=none;shadow=1;fontColor=#FFFFFF;fontStyle=0" parent="1" vertex="1">
          <mxGeometry x="1550" y="440.0000000000002" width="120" height="60" as="geometry" />
        </mxCell>
        <mxCell id="159" value="WORK&#xa;PACKAGE 3" style="whiteSpace=wrap;rounded=1;fillColor=#999999;strokeColor=none;shadow=1;fontColor=#FFFFFF;fontStyle=0" parent="1" vertex="1">
          <mxGeometry x="1549.9999999999998" y="520.0000000000002" width="120" height="60" as="geometry" />
        </mxCell>
        <mxCell id="160" value="WORK&#xa;PACKAGE 4" style="whiteSpace=wrap;rounded=1;fillColor=#999999;strokeColor=none;shadow=1;fontColor=#FFFFFF;fontStyle=0" parent="1" vertex="1">
          <mxGeometry x="1550" y="600.0000000000002" width="120" height="60" as="geometry" />
        </mxCell>
        <mxCell id="161" value="WORK&#xa;PACKAGE 5" style="whiteSpace=wrap;rounded=1;fillColor=#999999;strokeColor=none;shadow=1;fontColor=#FFFFFF;fontStyle=0" parent="1" vertex="1">
          <mxGeometry x="1550" y="680.0000000000002" width="120" height="60" as="geometry" />
        </mxCell>
        <mxCell id="162" value="WORK&#xa;PACKAGE 1" style="whiteSpace=wrap;rounded=1;fillColor=#999999;strokeColor=none;shadow=1;fontColor=#FFFFFF;fontStyle=0" parent="1" vertex="1">
          <mxGeometry x="1749.9999999999993" y="360.0000000000002" width="120" height="60" as="geometry" />
        </mxCell>
        <mxCell id="163" value="WORK&#xa;PACKAGE 2" style="whiteSpace=wrap;rounded=1;fillColor=#999999;strokeColor=none;shadow=1;fontColor=#FFFFFF;fontStyle=0" parent="1" vertex="1">
          <mxGeometry x="1749.9999999999995" y="440.0000000000002" width="120" height="60" as="geometry" />
        </mxCell>
        <mxCell id="164" value="WORK&#xa;PACKAGE 3" style="whiteSpace=wrap;rounded=1;fillColor=#999999;strokeColor=none;shadow=1;fontColor=#FFFFFF;fontStyle=0" parent="1" vertex="1">
          <mxGeometry x="1749.9999999999995" y="520.0000000000002" width="120" height="60" as="geometry" />
        </mxCell>
        <mxCell id="165" value="WORK&#xa;PACKAGE 4" style="whiteSpace=wrap;rounded=1;fillColor=#999999;strokeColor=none;shadow=1;fontColor=#FFFFFF;fontStyle=0" parent="1" vertex="1">
          <mxGeometry x="1749.9999999999995" y="600.0000000000002" width="120" height="60" as="geometry" />
        </mxCell>
        <mxCell id="166" value="WORK&#xa;PACKAGE 5" style="whiteSpace=wrap;rounded=1;fillColor=#999999;strokeColor=none;shadow=1;fontColor=#FFFFFF;fontStyle=0" parent="1" vertex="1">
          <mxGeometry x="1749.9999999999998" y="680.0000000000002" width="120" height="60" as="geometry" />
        </mxCell>
        <mxCell id="167" value="" style="edgeStyle=elbowEdgeStyle;elbow=horizontal;rounded=0;fontColor=#000000;endArrow=none;endFill=0;strokeWidth=8;strokeColor=#23445D;" parent="1" source="155" target="157" edge="1">
          <mxGeometry width="100" height="100" relative="1" as="geometry">
            <mxPoint x="1530" y="290.00000000000057" as="sourcePoint" />
            <mxPoint x="1539.9999999999995" y="390.0000000000001" as="targetPoint" />
            <Array as="points">
              <mxPoint x="1530" y="340.0000000000001" />
            </Array>
          </mxGeometry>
        </mxCell>
        <mxCell id="168" value="" style="edgeStyle=elbowEdgeStyle;elbow=horizontal;rounded=0;fontColor=#000000;endArrow=none;endFill=0;strokeWidth=8;strokeColor=#23445D;" parent="1" source="155" target="158" edge="1">
          <mxGeometry width="100" height="100" relative="1" as="geometry">
            <mxPoint x="1540" y="290.0000000000001" as="sourcePoint" />
            <mxPoint x="1539.9999999999998" y="470.0000000000001" as="targetPoint" />
            <Array as="points">
              <mxPoint x="1530" y="380.0000000000001" />
            </Array>
          </mxGeometry>
        </mxCell>
        <mxCell id="169" value="" style="edgeStyle=elbowEdgeStyle;elbow=horizontal;rounded=0;fontColor=#000000;endArrow=none;endFill=0;strokeWidth=8;strokeColor=#23445D;" parent="1" source="155" target="161" edge="1">
          <mxGeometry width="100" height="100" relative="1" as="geometry">
            <mxPoint x="1540" y="290.0000000000001" as="sourcePoint" />
            <mxPoint x="1540" y="710.0000000000001" as="targetPoint" />
            <Array as="points">
              <mxPoint x="1530" y="510.0000000000001" />
            </Array>
          </mxGeometry>
        </mxCell>
        <mxCell id="170" value="" style="edgeStyle=elbowEdgeStyle;elbow=horizontal;rounded=0;fontColor=#000000;endArrow=none;endFill=0;strokeWidth=8;strokeColor=#23445D;" parent="1" source="155" target="160" edge="1">
          <mxGeometry width="100" height="100" relative="1" as="geometry">
            <mxPoint x="1540" y="290.0000000000001" as="sourcePoint" />
            <mxPoint x="1540" y="630.0000000000001" as="targetPoint" />
            <Array as="points">
              <mxPoint x="1530" y="460.0000000000001" />
            </Array>
          </mxGeometry>
        </mxCell>
        <mxCell id="171" value="" style="edgeStyle=elbowEdgeStyle;elbow=horizontal;rounded=0;fontColor=#000000;endArrow=none;endFill=0;strokeWidth=8;strokeColor=#23445D;" parent="1" source="155" target="159" edge="1">
          <mxGeometry width="100" height="100" relative="1" as="geometry">
            <mxPoint x="1540" y="290.0000000000001" as="sourcePoint" />
            <mxPoint x="1539.9999999999998" y="550.0000000000001" as="targetPoint" />
            <Array as="points">
              <mxPoint x="1530" y="430.0000000000001" />
            </Array>
          </mxGeometry>
        </mxCell>
        <mxCell id="172" value="" style="edgeStyle=elbowEdgeStyle;elbow=horizontal;rounded=0;fontColor=#000000;endArrow=none;endFill=0;strokeWidth=8;strokeColor=#23445D;" parent="1" source="156" target="162" edge="1">
          <mxGeometry width="100" height="100" relative="1" as="geometry">
            <mxPoint x="1720" y="290.00000000000057" as="sourcePoint" />
            <mxPoint x="1729.9999999999995" y="390.0000000000001" as="targetPoint" />
            <Array as="points">
              <mxPoint x="1730" y="340.0000000000001" />
            </Array>
          </mxGeometry>
        </mxCell>
        <mxCell id="173" value="" style="edgeStyle=elbowEdgeStyle;elbow=horizontal;rounded=0;fontColor=#000000;endArrow=none;endFill=0;strokeWidth=8;strokeColor=#23445D;" parent="1" source="156" target="163" edge="1">
          <mxGeometry width="100" height="100" relative="1" as="geometry">
            <mxPoint x="1730" y="290.0000000000001" as="sourcePoint" />
            <mxPoint x="1729.9999999999998" y="470.0000000000001" as="targetPoint" />
            <Array as="points">
              <mxPoint x="1730" y="380.0000000000001" />
            </Array>
          </mxGeometry>
        </mxCell>
        <mxCell id="174" value="" style="edgeStyle=elbowEdgeStyle;elbow=horizontal;rounded=0;fontColor=#000000;endArrow=none;endFill=0;strokeWidth=8;strokeColor=#23445D;" parent="1" source="156" target="166" edge="1">
          <mxGeometry width="100" height="100" relative="1" as="geometry">
            <mxPoint x="1730" y="290.0000000000001" as="sourcePoint" />
            <mxPoint x="1730" y="710.0000000000001" as="targetPoint" />
            <Array as="points">
              <mxPoint x="1730" y="500.0000000000001" />
            </Array>
          </mxGeometry>
        </mxCell>
        <mxCell id="175" value="" style="edgeStyle=elbowEdgeStyle;elbow=horizontal;rounded=0;fontColor=#000000;endArrow=none;endFill=0;strokeWidth=8;strokeColor=#23445D;" parent="1" source="156" target="165" edge="1">
          <mxGeometry width="100" height="100" relative="1" as="geometry">
            <mxPoint x="1730" y="290.0000000000001" as="sourcePoint" />
            <mxPoint x="1730" y="630.0000000000001" as="targetPoint" />
            <Array as="points">
              <mxPoint x="1730" y="460.0000000000001" />
            </Array>
          </mxGeometry>
        </mxCell>
        <mxCell id="176" value="" style="edgeStyle=elbowEdgeStyle;elbow=horizontal;rounded=0;fontColor=#000000;endArrow=none;endFill=0;strokeWidth=8;strokeColor=#23445D;" parent="1" source="156" target="164" edge="1">
          <mxGeometry width="100" height="100" relative="1" as="geometry">
            <mxPoint x="1730" y="290.0000000000001" as="sourcePoint" />
            <mxPoint x="1729.9999999999998" y="550.0000000000001" as="targetPoint" />
            <Array as="points">
              <mxPoint x="1730" y="430.0000000000001" />
            </Array>
          </mxGeometry>
        </mxCell>
        <mxCell id="177" value="SUB-TASK 1" style="whiteSpace=wrap;rounded=1;fillColor=#12AAB5;strokeColor=none;shadow=1;fontColor=#FFFFFF;" parent="1" vertex="1">
          <mxGeometry x="1919.9999999999998" y="259.9999999999999" width="120" height="60" as="geometry" />
        </mxCell>
        <mxCell id="179" value="WORK&#xa;PACKAGE 1" style="whiteSpace=wrap;rounded=1;fillColor=#999999;strokeColor=none;shadow=1;fontColor=#FFFFFF;fontStyle=0" parent="1" vertex="1">
          <mxGeometry x="1919.9999999999998" y="359.9999999999999" width="120" height="60" as="geometry" />
        </mxCell>
        <mxCell id="180" value="WORK&#xa;PACKAGE 2" style="whiteSpace=wrap;rounded=1;fillColor=#999999;strokeColor=none;shadow=1;fontColor=#FFFFFF;fontStyle=0" parent="1" vertex="1">
          <mxGeometry x="1920" y="439.9999999999999" width="120" height="60" as="geometry" />
        </mxCell>
        <mxCell id="181" value="WORK&#xa;PACKAGE 3" style="whiteSpace=wrap;rounded=1;fillColor=#999999;strokeColor=none;shadow=1;fontColor=#FFFFFF;fontStyle=0" parent="1" vertex="1">
          <mxGeometry x="1919.9999999999998" y="519.9999999999999" width="120" height="60" as="geometry" />
        </mxCell>
        <mxCell id="182" value="WORK&#xa;PACKAGE 4" style="whiteSpace=wrap;rounded=1;fillColor=#999999;strokeColor=none;shadow=1;fontColor=#FFFFFF;fontStyle=0" parent="1" vertex="1">
          <mxGeometry x="1920" y="599.9999999999999" width="120" height="60" as="geometry" />
        </mxCell>
        <mxCell id="183" value="WORK&#xa;PACKAGE 5" style="whiteSpace=wrap;rounded=1;fillColor=#999999;strokeColor=none;shadow=1;fontColor=#FFFFFF;fontStyle=0" parent="1" vertex="1">
          <mxGeometry x="1920" y="679.9999999999999" width="120" height="60" as="geometry" />
        </mxCell>
        <mxCell id="189" value="" style="edgeStyle=elbowEdgeStyle;elbow=horizontal;rounded=0;fontColor=#000000;endArrow=none;endFill=0;strokeWidth=8;strokeColor=#23445D;" parent="1" source="177" target="179" edge="1">
          <mxGeometry width="100" height="100" relative="1" as="geometry">
            <mxPoint x="1900" y="290.0000000000002" as="sourcePoint" />
            <mxPoint x="1909.9999999999995" y="389.9999999999998" as="targetPoint" />
            <Array as="points">
              <mxPoint x="1900" y="339.9999999999998" />
            </Array>
          </mxGeometry>
        </mxCell>
        <mxCell id="190" value="" style="edgeStyle=elbowEdgeStyle;elbow=horizontal;rounded=0;fontColor=#000000;endArrow=none;endFill=0;strokeWidth=8;strokeColor=#23445D;" parent="1" source="177" target="180" edge="1">
          <mxGeometry width="100" height="100" relative="1" as="geometry">
            <mxPoint x="1910" y="289.9999999999998" as="sourcePoint" />
            <mxPoint x="1909.9999999999998" y="469.9999999999998" as="targetPoint" />
            <Array as="points">
              <mxPoint x="1900" y="379.9999999999998" />
            </Array>
          </mxGeometry>
        </mxCell>
        <mxCell id="191" value="" style="edgeStyle=elbowEdgeStyle;elbow=horizontal;rounded=0;fontColor=#000000;endArrow=none;endFill=0;strokeWidth=8;strokeColor=#23445D;" parent="1" source="177" target="183" edge="1">
          <mxGeometry width="100" height="100" relative="1" as="geometry">
            <mxPoint x="1910" y="289.9999999999998" as="sourcePoint" />
            <mxPoint x="1910" y="709.9999999999998" as="targetPoint" />
            <Array as="points">
              <mxPoint x="1900" y="509.9999999999998" />
            </Array>
          </mxGeometry>
        </mxCell>
        <mxCell id="192" value="" style="edgeStyle=elbowEdgeStyle;elbow=horizontal;rounded=0;fontColor=#000000;endArrow=none;endFill=0;strokeWidth=8;strokeColor=#23445D;" parent="1" source="177" target="182" edge="1">
          <mxGeometry width="100" height="100" relative="1" as="geometry">
            <mxPoint x="1910" y="289.9999999999998" as="sourcePoint" />
            <mxPoint x="1910" y="629.9999999999998" as="targetPoint" />
            <Array as="points">
              <mxPoint x="1900" y="459.9999999999998" />
            </Array>
          </mxGeometry>
        </mxCell>
        <mxCell id="193" value="" style="edgeStyle=elbowEdgeStyle;elbow=horizontal;rounded=0;fontColor=#000000;endArrow=none;endFill=0;strokeWidth=8;strokeColor=#23445D;" parent="1" source="177" target="181" edge="1">
          <mxGeometry width="100" height="100" relative="1" as="geometry">
            <mxPoint x="1910" y="289.9999999999998" as="sourcePoint" />
            <mxPoint x="1909.9999999999998" y="549.9999999999998" as="targetPoint" />
            <Array as="points">
              <mxPoint x="1900" y="429.9999999999998" />
            </Array>
          </mxGeometry>
        </mxCell>
        <mxCell id="229" value="" style="edgeStyle=elbowEdgeStyle;elbow=vertical;rounded=0;fontColor=#000000;endArrow=none;endFill=0;strokeWidth=8;strokeColor=#23445D;entryX=0.5;entryY=0;entryDx=0;entryDy=0;" parent="1" source="2" target="12" edge="1">
          <mxGeometry width="100" height="100" relative="1" as="geometry">
            <mxPoint x="910" y="100" as="sourcePoint" />
            <mxPoint x="600" y="129.99999999999977" as="targetPoint" />
            <Array as="points">
              <mxPoint x="1240" y="230" />
              <mxPoint x="1240" y="230" />
            </Array>
          </mxGeometry>
        </mxCell>
        <mxCell id="7uPClmpA7277DwavXmE7-234" value="" style="edgeStyle=elbowEdgeStyle;elbow=vertical;rounded=0;fontColor=#000000;endArrow=none;endFill=0;strokeWidth=8;strokeColor=#23445D;entryX=0.5;entryY=0;entryDx=0;entryDy=0;exitX=0.5;exitY=0;exitDx=0;exitDy=0;" edge="1" parent="1" source="177" target="10">
          <mxGeometry width="100" height="100" relative="1" as="geometry">
            <mxPoint x="1990" y="230" as="sourcePoint" />
            <mxPoint x="510" y="220" as="targetPoint" />
            <Array as="points">
              <mxPoint x="670" y="230" />
            </Array>
          </mxGeometry>
        </mxCell>
        <mxCell id="7uPClmpA7277DwavXmE7-239" value="" style="edgeStyle=elbowEdgeStyle;elbow=vertical;rounded=0;fontColor=#000000;endArrow=none;endFill=0;strokeWidth=8;strokeColor=#23445D;exitX=0.5;exitY=1;exitDx=0;exitDy=0;" edge="1" parent="1" source="2">
          <mxGeometry width="100" height="100" relative="1" as="geometry">
            <mxPoint x="1150" y="180" as="sourcePoint" />
            <mxPoint x="1820" y="260" as="targetPoint" />
            <Array as="points">
              <mxPoint x="1480" y="230" />
            </Array>
          </mxGeometry>
        </mxCell>
        <mxCell id="7uPClmpA7277DwavXmE7-241" value="" style="edgeStyle=elbowEdgeStyle;elbow=vertical;rounded=0;fontColor=#000000;endArrow=none;endFill=0;strokeWidth=8;strokeColor=#23445D;" edge="1" parent="1">
          <mxGeometry width="100" height="100" relative="1" as="geometry">
            <mxPoint x="1240" y="200" as="sourcePoint" />
            <mxPoint x="1610" y="260" as="targetPoint" />
            <Array as="points">
              <mxPoint x="1430" y="230" />
            </Array>
          </mxGeometry>
        </mxCell>
        <mxCell id="7uPClmpA7277DwavXmE7-245" value="" style="edgeStyle=elbowEdgeStyle;elbow=vertical;rounded=0;fontColor=#000000;endArrow=none;endFill=0;strokeWidth=8;strokeColor=#23445D;entryX=0.5;entryY=0;entryDx=0;entryDy=0;" edge="1" parent="1" target="134">
          <mxGeometry width="100" height="100" relative="1" as="geometry">
            <mxPoint x="1240" y="200" as="sourcePoint" />
            <mxPoint x="1610" y="260" as="targetPoint" />
            <Array as="points">
              <mxPoint x="1430" y="230" />
            </Array>
          </mxGeometry>
        </mxCell>
        <mxCell id="7uPClmpA7277DwavXmE7-246" value="" style="edgeStyle=elbowEdgeStyle;elbow=vertical;rounded=0;fontColor=#000000;endArrow=none;endFill=0;strokeWidth=8;strokeColor=#23445D;entryX=0.5;entryY=0;entryDx=0;entryDy=0;" edge="1" parent="1" target="133">
          <mxGeometry width="100" height="100" relative="1" as="geometry">
            <mxPoint x="1240" y="200" as="sourcePoint" />
            <mxPoint x="1610" y="260" as="targetPoint" />
            <Array as="points">
              <mxPoint x="1430" y="230" />
            </Array>
          </mxGeometry>
        </mxCell>
        <mxCell id="7uPClmpA7277DwavXmE7-247" value="" style="edgeStyle=elbowEdgeStyle;elbow=vertical;rounded=0;fontColor=#000000;endArrow=none;endFill=0;strokeWidth=8;strokeColor=#23445D;entryX=0.5;entryY=0;entryDx=0;entryDy=0;" edge="1" parent="1" target="44">
          <mxGeometry width="100" height="100" relative="1" as="geometry">
            <mxPoint x="1240" y="200" as="sourcePoint" />
            <mxPoint x="1610" y="260" as="targetPoint" />
            <Array as="points">
              <mxPoint x="1430" y="230" />
            </Array>
          </mxGeometry>
        </mxCell>
        <mxCell id="7uPClmpA7277DwavXmE7-248" value="" style="edgeStyle=elbowEdgeStyle;elbow=vertical;rounded=0;fontColor=#000000;endArrow=none;endFill=0;strokeWidth=8;strokeColor=#23445D;entryX=0.5;entryY=0;entryDx=0;entryDy=0;" edge="1" parent="1" target="43">
          <mxGeometry width="100" height="100" relative="1" as="geometry">
            <mxPoint x="1240" y="200" as="sourcePoint" />
            <mxPoint x="1610" y="260" as="targetPoint" />
            <Array as="points">
              <mxPoint x="1430" y="230" />
            </Array>
          </mxGeometry>
        </mxCell>
      </root>
    </mxGraphModel>
  </diagram>
</mxfile>
